/* XPM */
static char *PORCELAINBRICKS1707555115[] = {
/* columns rows colors chars-per-pixel */
"32 32 6 1 ",
"  c #2B1818",
". c #42271E",
"X c #2E4E27",
"o c #336C57",
"O c #548249",
"+ c #91AC62",
/* pixels */
"XXXX.ooo ooo ooo     XXXX+OO XXX",
"X++o.+++ XXX ooo ooo oooXOOO ooo",
"XOOO.OOO ooo XXX +++ +++XOOO o++",
"XOOO.OOO +++ +++ OOO OOOXOOO.+OO",
"XOOO.OOO.OOO OOO OOO OOoXOoo.OOO",
".OOO.ooo.OOO OOO OOO OOoXooo.OOO",
".OOO.ooo.oOO OOO.ooo.OOoXooo.ooo",
".OOO.ooo.oOO.ooo.ooo.oooXooo.ooo",
" OOO.ooo.ooo.ooo ooo.ooo.ooo.ooo",
" OOO.ooo.ooo.ooo ooo.ooo.ooo.ooo",
" OOO.XXX.ooo.XXX ooo ooo.....XXX",
" XXX.+++.XXX.OOO ... XXX.+++.O++",
" +++.OOO.o++.ooo +++ o++.OOO.+OO",
" OOO.OOO.+OO.ooo.OOO +OO.OOO.OOO",
" OOO.OOO.OOO.ooo.OOO OOO.OOO.OOO",
" OOO.OOo.OOO.ooo.OOO.OOO Ooo.OOO",
" OOO.OOo.OOO.ooo.OOo.OOo Ooo Ooo",
".OOo.ooo OOo.ooo.ooo.OOo ooo ooo",
".OOo.ooo ooo.ooo.ooo.ooo ooo ooo",
".ooo.ooo oooXoooXooo.ooo ooo ooo",
".ooo.ooo oooXoooXooo ooo ooo ooo",
".XXX.... oooXoooXXXX ooo ... ooo",
".++o.+++ XXXXXXXX+++ ... o++ XXX",
".OOO.OOO OOoXo++XOOO o++ +OO ooo",
".OOO.OOO OOOX+OOXOOO +OO.OOO o++",
".OOO.OOo OOOXOOOXOOO OOO.OOO +OO",
".OOO.OOo OOOXOOo.OOo OOOXOOo OOO",
".ooo.ooo OOOXOOo.OOo OooXooo OOO",
".ooo.ooo Ooo.Ooo.ooo oooXooo ooo",
".ooo.ooo ooo.ooo ooo oooXooo ooo",
"Xooo.ooo ooo ooo ooo oooXXXX ooo",
"Xooo.... ooo ooo ooo oooXo++ ooo"
};
