/* XPM */
static char *REDBRICKS1707555116[] = {
/* columns rows colors chars-per-pixel */
"32 32 6 1 ",
"  c #622222",
". c #6C6C6C",
"X c #932A20",
"o c #B35D3D",
"O c gray56",
"+ c gray81",
/* pixels */
"O XoooXooXoXX X O XooooooXooX X ",
"+ XXXXXXXXXXXX  + XXXXXXXXXXXX  ",
"+ XXXXXXXXXXX X + XXXXXXXXXXX X ",
"+ XXXXXXXXXX X  + XXXXXXXXXX X  ",
"+ XXXXXXX X X X + XXXXXXX X     ",
"+  X X X X X X  +  X X X X      ",
"O X X X X X X X O X X X X X     ",
"OO++++OOOOOOOO....O+++O.O+++OOOO",
"XoXX X O XoooooXooXX X O XXooooo",
"XXXXX  + XXXXXXXXXXXX  + XXXXXXX",
"XXXX X + XXXXXXXXXXX X + XXXXXXX",
"XXX X  + XXXXXXXXXX X  + XXXXXXX",
" X     + XXXXXXX X X X + XXXXXXX",
"X      +  X X X X X X  +  X X X ",
"       O X X X X X X X O X X X X",
"OO++OO....OO+++O......OOOO+++++O",
"O XoooXooXoXX X O oooXoXoXXXX X ",
"+ XXXXXXXXXXXX  + XXXXXXXXXXXX  ",
"+ XXXXXXXXXXX X + XXXXXXXXXXX X ",
"+ XXXXXXXXXX X  + XXXXXXXXXX X  ",
"+ XXXXXXX X X X + XXXXXXX X X X ",
"+  X X X X X X  +  X X X X X X  ",
"O X X X X X X X O X X X X X X X ",
"OO++++O.O++OOO...O++++O...O.O++O",
"XXXX X O XoooooXoXXX X O XooooXo",
"XXXXX  + XXXXXXXXXXXX  + XXXXXXX",
"XXXX X + XXXXXXXXXXX X + XXXXXXX",
"XXX X  + XXXXXXXXXX    + XXXXXXX",
" X X X + XXXXXXX X     + XXXXXXX",
"X X X  +  X X X X X    +  X X X ",
" X X X O X X X X X     O X X X X",
"OO++++OOO++++++OOO++O....OO++++O"
};
